<?xml version="1.0" encoding="UTF-8" standalone="no"?>
<svg
   xmlns:dc="http://purl.org/dc/elements/1.1/"
   xmlns:cc="http://creativecommons.org/ns#"
   xmlns:rdf="http://www.w3.org/1999/02/22-rdf-syntax-ns#"
   xmlns:svg="http://www.w3.org/2000/svg"
   xmlns="http://www.w3.org/2000/svg"
   xmlns:sodipodi="http://sodipodi.sourceforge.net/DTD/sodipodi-0.dtd"
   xmlns:inkscape="http://www.inkscape.org/namespaces/inkscape"
   version="1.0"
   width="128px"
   height="128px"
   viewBox="0 0 128 128"
   preserveAspectRatio="xMidYMid meet"
   id="svg6"
   sodipodi:docname="Doghound Logo.svg"
   inkscape:version="1.0.2-2 (e86c870879, 2021-01-15)"
   inkscape:export-filename="D:\Libraries\Downloads\Doghound Logo.png"
   inkscape:export-xdpi="768"
   inkscape:export-ydpi="768">
  <metadata
     id="metadata12">
    <rdf:RDF>
      <cc:Work
         rdf:about="">
        <dc:format>image/svg+xml</dc:format>
        <dc:type
           rdf:resource="http://purl.org/dc/dcmitype/StillImage" />
        <dc:title></dc:title>
      </cc:Work>
    </rdf:RDF>
  </metadata>
  <defs
     id="defs10" />
  <sodipodi:namedview
     pagecolor="#fd6d6d"
     bordercolor="#666666"
     borderopacity="1"
     objecttolerance="10"
     gridtolerance="10"
     guidetolerance="10"
     inkscape:pageopacity="0"
     inkscape:pageshadow="2"
     inkscape:window-width="1920"
     inkscape:window-height="1017"
     id="namedview8"
     showgrid="false"
     inkscape:zoom="4.695631"
     inkscape:cx="40.609876"
     inkscape:cy="71.689442"
     inkscape:window-x="-8"
     inkscape:window-y="-8"
     inkscape:window-maximized="1"
     inkscape:current-layer="svg6"
     inkscape:document-rotation="0"
     inkscape:pagecheckerboard="false" />
  <g
     fill="#ffffff"
     id="g4"
     transform="translate(6.3326262,-1.0942107)"
     inkscape:label="Logo"
     sodipodi:insensitive="true"
     style="opacity:1">
    <path
       d="m 45.2,112.8 c -0.65,-3.7 0.5,-6.25 5,-11.15 1.8,-1.95 3.3,-3.7 3.3,-3.85 0,-0.15 -0.4,-0.3 -0.85,-0.3 -1.95,0 -4.75,-1.15 -6.4,-2.55 C 44.2,93.15 43,89.65 43,85.65 43,83.7 42.8,83 42.3,83 40,83 37.05,78.3 37.7,75.7 c 0.3,-1.05 0.6,-1.2 2.5,-1.2 2.8,0 5.2,-1.6 6.7,-4.5 1.05,-2.1 1.5,-5 0.75,-5 -0.8,0 -3.8,2.8 -5,4.6 -1.1,1.85 -1.35,1.95 -1.75,1.15 C 40.6,70.3 40.5,68.15 40.6,66 40.95,60.4 43.2,55.85 47.4,52.35 48.35,51.6 49.25,51 49.45,51 c 0.2,0 0.3,1.2 0.15,2.7 -0.3,3.45 0.5,3.9 1.85,1.1 0.6,-1.2 2.8,-4.05 4.95,-6.4 3.95,-4.35 6.9,-8.25 6.55,-8.65 -0.45,-0.45 -9.25,1.4 -11.05,2.3 -2.55,1.3 -4.9,3.85 -6.55,7.15 -0.8,1.55 -1.55,2.8 -1.7,2.8 -0.1,0 -0.1,-0.9 0.1,-1.95 l 0.3,-1.95 -4.5,4.3 c -2.65,2.6 -4.6,4.9 -4.8,5.75 -0.9,3.5 -2.05,-0.3 -1.65,-5.35 0.2,-2 0.75,-4.15 1.65,-5.85 l 1.35,-2.7 -1.6,1.5 c -2.1,2 -4.25,6.6 -5.55,11.75 -1.75,6.9 -2.45,7.55 -3.65,3.25 -0.55,-1.85 -1.65,-3.7 -3.45,-5.75 -4.3,-5.05 -4.5,-5.65 -3.55,-10.3 0.65,-3.15 0.75,-5.4 0.5,-11.3 -0.35,-7 -0.3,-7.4 0.7,-8.4 1.3,-1.3 4.95,-1.35 7.75,-0.05 2.9,1.3 4.95,3.2 8.05,7.4 1.65,2.25 3.4,4 4.45,4.5 1.65,0.8 1.9,0.75 6.35,-0.6 2.55,-0.75 6.3,-2.25 8.3,-3.3 4.45,-2.35 6.9,-2.55 9.85,-0.7 1.1,0.65 2.4,1.25 2.85,1.25 0.45,0 3.05,-2.55 5.8,-5.6 7.75,-8.8 10.6,-11.2 14.25,-12.1 1.95,-0.45 5.1,0.5 6.95,2.15 1.55,1.35 1.6,1.65 1.9,6.1 0.2,2.6 0.6,5.35 0.9,6.1 0.95,2.3 0.75,8.3 -0.45,11.9 -0.55,1.75 -3,7.35 -5.45,12.45 -2.45,5.1 -4.7,10.25 -5,11.5 -0.3,1.25 -0.8,3.1 -1.05,4.15 -0.3,1.1 -1.2,3 -2,4.35 -0.8,1.3 -1.45,3.05 -1.45,3.95 0,2.3 -1.3,2 -1.7,-0.45 -0.35,-2.1 -1.2,-2.55 -2.3,-1.25 -0.55,0.65 -0.85,0.55 -2.35,-0.75 -0.9,-0.85 -1.8,-1.5 -1.9,-1.5 -0.15,0 0.25,1 0.85,2.25 0.6,1.2 0.95,2.35 0.8,2.5 C 74.75,79.4 74,79.3 73.25,79 71.7,78.4 71,78.7 71.9,79.6 c 0.35,0.35 0.6,1.25 0.6,2.05 0,1.35 0.1,1.45 1.5,1.2 1.15,-0.25 1.4,-0.15 1.15,0.4 -0.35,0.95 0.7,2.25 1.85,2.25 0.5,0 1,0.3 1.15,0.7 0.35,0.9 7.2,1.95 8.45,1.25 C 88,86.7 87.75,85.3 86.25,85.7 84.45,86.15 81,85.5 81,84.7 81,84.3 80.5,84 79.75,84 c -0.8,0 -1.25,-0.3 -1.25,-0.75 0,-0.95 0.65,-0.95 2.6,0.05 2.15,1.1 2.9,0.2 1.15,-1.45 -2.2,-2 -0.5,-2.15 1.85,-0.15 2.4,2.05 3.45,2.2 5.25,0.8 0.7,-0.55 1.5,-1 1.7,-1 0.85,0 0.45,1.85 -0.7,3.6 -0.65,0.95 -1.3,2.7 -1.5,3.85 -0.5,4 -4.3,6.5 -9.75,6.55 -1.75,0 -3.95,-0.35 -5,-0.8 -1.75,-0.7 -1.9,-0.7 -2.35,0.15 -1.45,2.65 -5.05,5.25 -11.4,8.35 -7.8,3.8 -10.85,6 -12.65,9.05 -0.7,1.25 -1.5,2.25 -1.7,2.25 -0.25,0 -0.6,-0.75 -0.8,-1.7 z M 78.8,93.55 C 78.65,93.35 77.6,93 76.5,92.85 75.4,92.7 73.05,91.9 71.25,91.05 69.45,90.25 68,89.6 68,89.7 c 0,0.5 4.25,2.85 6.3,3.5 2.75,0.85 4.9,1 4.5,0.35 z M 77.95,88.8 c 0.5,-0.55 0.3,-0.85 -0.9,-1.45 C 76.2,86.9 74.2,85.4 72.65,84 71.05,82.6 67.5,80.25 64.8,78.85 c -6.15,-3.25 -7,-4.45 -6.6,-9.4 0.4,-5.2 5.05,-16.4 9.1,-21.75 1.8,-2.45 1.8,-2.45 0.25,-0.95 -0.9,0.85 -2.35,2.55 -3.15,3.85 -2,3.05 -2.35,2.75 -0.7,-0.6 0.7,-1.4 1.3,-2.9 1.3,-3.25 0,-0.35 0.55,-1.35 1.25,-2.15 0.7,-0.85 1.25,-2 1.25,-2.6 0,-0.65 0.5,-1.9 1.1,-2.85 l 1.05,-1.75 -1.2,0.35 c -1.65,0.5 -3.85,2.65 -5,4.85 -1.3,2.55 -1.2,2.95 0.35,1.15 1.2,-1.4 1.2,-1.3 -0.25,1.3 -0.85,1.55 -2.1,4.35 -2.8,6.25 -0.7,1.9 -2.75,6.5 -4.55,10.3 -2.55,5.25 -3.35,7.5 -3.55,9.8 -0.35,3.55 0.75,7.4 2.65,9.15 l 1.25,1.15 -1.1,-2.45 c -1.25,-2.75 -1.5,-7.9 -0.55,-9.55 0.5,-0.8 0.55,-0.6 0.6,1.2 0,4.5 2.15,6.75 9.15,9.65 1.6,0.65 3.75,1.9 4.75,2.8 l 1.85,1.6 L 69.4,85 c -2.35,0 -2.45,0.75 -0.25,1.5 0.85,0.3 2.4,1.1 3.35,1.75 1.95,1.35 4.6,1.6 5.45,0.55 z M 69.5,79.5 c -0.7,-0.55 -1.6,-1 -2,-1 -0.4,0 -0.05,0.45 0.75,0.95 1.95,1.3 2.85,1.3 1.25,0.05 z m -5.9,-3.95 c -1.1,-2.1 -1.45,-2.4 -2.2,-2 -1.4,0.75 -1.05,1.8 1,3.15 1,0.7 2,1.25 2.2,1.25 0.2,0.05 -0.25,-1.05 -1,-2.4 z M 82.7,60.2 c 0.3,-0.85 -0.95,-2.7 -1.8,-2.7 -0.55,0 -0.5,1.35 0.1,2.55 0.65,1.15 1.3,1.2 1.7,0.15 z m 2.6,-3 c 1,-2.45 0.75,-3.9 -0.75,-4.1 -1.1,-0.2 -1.2,-0.05 -0.9,1.7 0.2,1.05 0.1,2.15 -0.2,2.5 -0.55,0.7 -0.2,1.7 0.6,1.7 0.3,0 0.85,-0.8 1.25,-1.8 z M 86,50.8 c 0,-1.25 -0.6,-2.3 -1.3,-2.3 -0.85,0 -0.9,1.6 -0.1,2.4 0.8,0.8 1.4,0.75 1.4,-0.1 z m 1.4,-4.1 c -0.2,-1.2 -1.2,-1.45 -1.6,-0.4 -0.4,1 0.65,2.45 1.35,1.75 C 87.4,47.8 87.5,47.2 87.4,46.7 Z M 93.55,43 c 0.05,-2.35 -0.05,-4.65 -0.2,-5.1 -0.2,-0.5 -0.45,-1.2 -0.55,-1.6 -0.15,-0.35 -1,-0.8 -1.95,-1 C 89.85,35.1 89,34.75 88.9,34.5 88.8,34.25 87.75,34 86.5,34 c -5.5,-0.1 -5.7,0 -5.15,3.2 0.35,2.05 0.8,2.25 1.85,0.7 0.55,-0.8 1.35,-1.1 3,-1.2 1.25,-0.1 2.4,0.05 2.55,0.3 0.2,0.3 0.85,0.5 1.5,0.5 2.05,0 3.1,3.15 1.3,3.75 -1.35,0.4 -1.8,2.1 -0.9,3.15 0.45,0.45 1.05,1.5 1.35,2.3 0.85,2.3 1.4,0.95 1.55,-3.7 z m -59.9,0.1 C 35,41.4 35.9,40 35.6,40 c -0.25,0 -0.75,0.35 -1.1,0.75 -1.35,1.6 -1.5,0.65 -0.3,-1.6 0.75,-1.25 1.2,-2.4 1.05,-2.55 -0.15,-0.15 -1.1,0.55 -2.15,1.55 -2.05,2 -2.6,1.95 -2.6,-0.1 0,-1.7 -1.15,-5.4 -2.45,-7.95 -1.1,-2.2 -3.2,-3.6 -5.25,-3.6 -1.7,0 -2,0.7 -0.75,1.8 1.9,1.75 3.3,5.4 4.4,11.45 1.5,8.45 2.65,9 7.2,3.35 z M 78,43.25 c 1.05,-2.3 1.3,-5 0.55,-5.45 -0.8,-0.5 -2.1,0.3 -2.55,1.45 -0.55,1.4 -0.05,6.85 0.55,6.45 0.25,-0.15 0.9,-1.25 1.45,-2.45 z M 76.5,36.8 c 1.25,-1.35 1.95,-2.3 1.65,-2.1 -0.8,0.45 -0.8,0.05 -0.15,-1.25 0.4,-0.7 0.35,-0.95 -0.1,-0.95 -0.8,0 -4.5,2.55 -4.15,2.9 0.1,0.15 0.55,-0.05 1,-0.4 1.35,-1.1 1.4,-0.15 0.1,1.6 -0.65,0.9 -1.45,2.45 -1.75,3.4 l -0.55,1.75 0.85,-1.25 c 0.45,-0.7 1.85,-2.35 3.1,-3.7 z m -21.75,2.1 c 0.3,-0.65 1.05,-1.4 1.75,-1.75 0.7,-0.35 0.95,-0.65 0.6,-0.65 -1.4,0 -4.05,2 -4.1,3.15 0,0.85 1.3,0.25 1.75,-0.75 z M 61.5,35 c 0,-1.1 -1.75,-2.05 -2.95,-1.6 -0.5,0.2 -0.4,0.4 0.4,0.65 0.6,0.25 1.2,0.75 1.35,1.2 0.45,1.1 1.2,0.9 1.2,-0.25 z M 85.65,25.65 C 87.4,24 86.2,22.8 84,24 c -1.3,0.7 -1.85,-0.3 -0.75,-1.5 0.45,-0.5 0.7,-1.2 0.5,-1.45 -0.5,-0.8 -1.25,-0.65 -1.6,0.35 -0.15,0.45 -0.75,1.35 -1.35,2 -0.85,1 -0.9,1.2 -0.3,1.6 0.4,0.3 1.1,0.45 1.5,0.45 1.5,-0.1 1.65,0.05 0.7,0.85 -0.9,0.75 -0.9,0.75 0.55,0.45 0.85,-0.2 1.9,-0.7 2.4,-1.1 z M 89,22.55 c 0,-0.5 0.15,-1.65 0.3,-2.5 0.2,-1 0.15,-1.55 -0.25,-1.55 -0.3,0 -0.55,0.75 -0.55,1.7 0,0.95 -0.2,1.9 -0.5,2.05 -0.75,0.45 -0.6,1.25 0.25,1.25 0.4,0 0.75,-0.4 0.75,-0.95 z"
       id="path2" />
  </g>
</svg>
